<svg xmlns="http://www.w3.org/2000/svg" xmlns:xlink="http://www.w3.org/1999/xlink" width="180" zoomAndPan="magnify" viewBox="0 0 135 135.000003" height="180" preserveAspectRatio="xMidYMid meet" version="1.0"><defs><g/><clipPath id="id1"><path d="M 0.496094 0 L 134.503906 0 L 134.503906 134.007812 L 0.496094 134.007812 Z M 0.496094 0 " clip-rule="nonzero"/></clipPath><clipPath id="id2"><path d="M 49.527344 42.054688 L 87.316406 42.054688 L 87.316406 97.800781 L 49.527344 97.800781 Z M 49.527344 42.054688 " clip-rule="nonzero"/></clipPath><clipPath id="id3"><path d="M 16.578125 35.929688 L 118.421875 35.929688 L 118.421875 98.109375 L 16.578125 98.109375 Z M 16.578125 35.929688 " clip-rule="nonzero"/></clipPath><clipPath id="id4"><path d="M 86.410156 69 L 104.367188 69 L 104.367188 80 L 86.410156 80 Z M 86.410156 69 " clip-rule="nonzero"/></clipPath><clipPath id="id5"><path d="M 94 66.050781 L 97 66.050781 L 97 71 L 94 71 Z M 94 66.050781 " clip-rule="nonzero"/></clipPath><clipPath id="id6"><path d="M 86.410156 68 L 104.367188 68 L 104.367188 80.257812 L 86.410156 80.257812 Z M 86.410156 68 " clip-rule="nonzero"/></clipPath><clipPath id="id7"><path d="M 86.410156 66.050781 L 104.367188 66.050781 L 104.367188 79 L 86.410156 79 Z M 86.410156 66.050781 " clip-rule="nonzero"/></clipPath><clipPath id="id8"><path d="M 89.152344 73.140625 L 100.945312 73.140625 L 100.945312 76.625 L 89.152344 76.625 Z M 89.152344 73.140625 " clip-rule="nonzero"/></clipPath></defs><g clip-path="url(#id1)"><path fill="#4434e0" d="M 125.789062 134.007812 L 9.210938 134.007812 C 4.410156 134.007812 0.496094 130.09375 0.496094 125.292969 L 0.496094 8.714844 C 0.496094 3.914062 4.410156 0 9.210938 0 L 125.789062 0 C 130.589844 0 134.503906 3.914062 134.503906 8.714844 L 134.503906 125.292969 C 134.503906 130.09375 130.589844 134.007812 125.789062 134.007812 " fill-opacity="1" fill-rule="nonzero"/></g><g clip-path="url(#id2)"><path fill="#ffffff" d="M 49.527344 42.054688 L 87.316406 42.054688 L 87.316406 97.800781 L 49.527344 97.800781 L 49.527344 42.054688 " fill-opacity="1" fill-rule="nonzero"/></g><g clip-path="url(#id3)"><path fill="#161523" d="M 118.246094 95.714844 L 108.390625 66.128906 C 106.074219 59.195312 99.792969 54.449219 92.558594 54.050781 L 92.558594 39.191406 C 92.558594 37.382812 91.082031 35.902344 89.273438 35.902344 L 86.519531 35.902344 L 86.519531 35.394531 C 86.519531 32.347656 84.046875 29.875 80.984375 29.875 L 72.648438 29.875 C 72.429688 28.550781 72.121094 27.226562 72.230469 25.878906 C 72.382812 24.003906 73.574219 23.25 75.316406 23.164062 C 77.875 23.050781 80.300781 22.542969 81.511719 20.003906 C 83.828125 15.171875 79.527344 9.273438 74.148438 10.421875 C 71.4375 10.996094 69.386719 13.160156 67.730469 15.347656 C 65.285156 11.417969 60.082031 9.230469 55.738281 11.59375 C 52.871094 13.140625 51.722656 16.957031 53.15625 19.851562 C 54.570312 22.675781 57.984375 24.355469 61.074219 24.132812 C 61.648438 24.089844 62.328125 23.890625 62.769531 24.378906 C 63.125 24.773438 63.167969 25.503906 63.191406 26.035156 C 63.257812 27.3125 63.078125 28.59375 62.925781 29.875 L 53.972656 29.875 C 50.929688 29.875 48.460938 32.347656 48.460938 35.394531 L 48.460938 35.902344 L 45.703125 35.902344 C 43.898438 35.902344 42.417969 37.382812 42.417969 39.191406 L 42.417969 54.050781 C 35.1875 54.425781 28.902344 59.175781 26.589844 66.128906 L 16.777344 95.714844 C 16.578125 96.289062 16.6875 96.929688 17.039062 97.417969 C 17.394531 97.902344 17.96875 98.1875 18.5625 98.1875 L 116.460938 98.1875 C 117.054688 98.1875 117.628906 97.902344 117.980469 97.417969 C 118.335938 96.929688 118.421875 96.289062 118.246094 95.714844 Z M 69.847656 47.695312 C 69.980469 47.695312 70.136719 47.714844 70.269531 47.757812 C 70.886719 47.9375 71.324219 48.511719 71.324219 49.171875 L 71.324219 53.898438 C 71.324219 54.140625 71.28125 54.363281 71.171875 54.558594 C 70.996094 54.914062 70.664062 55.179688 70.269531 55.3125 C 70.136719 55.355469 70.003906 55.378906 69.871094 55.378906 L 65.152344 55.378906 C 65.019531 55.378906 64.867188 55.355469 64.734375 55.3125 C 64.359375 55.199219 64.027344 54.933594 63.851562 54.558594 C 63.742188 54.363281 63.695312 54.140625 63.695312 53.898438 L 63.695312 49.171875 C 63.695312 48.53125 64.136719 47.957031 64.753906 47.757812 C 64.886719 47.714844 65.019531 47.695312 65.175781 47.695312 Z M 62.152344 55.398438 C 62.308594 55.730469 62.527344 56.015625 62.792969 56.261719 L 56.421875 59 C 55.515625 59.394531 54.546875 59.507812 53.597656 59.328125 C 51.371094 58.953125 49.652344 57.121094 49.429688 54.871094 C 49.410156 54.691406 49.410156 48.664062 49.410156 48.664062 C 49.410156 46.964844 50.246094 45.398438 51.679688 44.449219 C 53.089844 43.519531 54.878906 43.34375 56.441406 44.027344 L 62.816406 46.765625 C 62.199219 47.382812 61.824219 48.222656 61.824219 49.152344 L 61.824219 53.875 C 61.777344 54.425781 61.910156 54.933594 62.152344 55.398438 Z M 54.371094 61.292969 C 54.390625 61.292969 54.414062 61.292969 54.4375 61.292969 C 55.363281 61.292969 56.289062 61.097656 57.171875 60.71875 L 63.695312 57.917969 C 64.09375 57.738281 64.46875 57.496094 64.800781 57.210938 C 64.910156 57.230469 65.019531 57.230469 65.152344 57.230469 L 69.871094 57.230469 C 69.980469 57.230469 70.113281 57.230469 70.222656 57.210938 C 70.554688 57.496094 70.929688 57.761719 71.324219 57.917969 L 77.851562 60.71875 C 78.734375 61.097656 79.660156 61.273438 80.585938 61.273438 C 80.609375 61.273438 80.652344 61.273438 80.675781 61.273438 L 80.675781 96.3125 L 54.371094 96.3125 Z M 78.558594 59 L 72.1875 56.261719 C 72.429688 56.015625 72.648438 55.730469 72.824219 55.398438 C 73.066406 54.9375 73.199219 54.40625 73.199219 53.875 L 73.199219 49.152344 C 73.199219 48.246094 72.824219 47.382812 72.207031 46.765625 L 78.582031 44.027344 C 80.144531 43.367188 81.933594 43.519531 83.34375 44.449219 C 84.753906 45.375 85.613281 46.964844 85.613281 48.664062 L 85.613281 54.339844 C 85.613281 56.039062 84.777344 57.605469 83.34375 58.554688 C 81.910156 59.507812 80.125 59.683594 78.558594 59 Z M 50.355469 35.417969 C 50.355469 33.40625 51.988281 31.773438 53.996094 31.773438 L 81.003906 31.773438 C 83.011719 31.773438 84.664062 33.40625 84.664062 35.417969 L 84.664062 35.925781 L 74.28125 35.925781 C 71.347656 35.925781 68.8125 37.558594 67.488281 39.964844 C 66.1875 37.558594 63.632812 35.925781 60.699219 35.925781 L 50.3125 35.925781 L 50.3125 35.417969 Z M 50.355469 35.417969 " fill-opacity="1" fill-rule="nonzero"/></g><path fill="#161523" d="M 67.511719 62.089844 C 65.328125 62.089844 63.566406 63.855469 63.566406 66.042969 C 63.566406 68.226562 65.328125 69.992188 67.511719 69.992188 C 69.695312 69.992188 71.457031 68.226562 71.457031 66.042969 C 71.457031 63.855469 69.671875 62.089844 67.511719 62.089844 Z M 67.511719 62.089844 " fill-opacity="1" fill-rule="nonzero"/><path fill="#161523" d="M 67.511719 74.167969 C 65.328125 74.167969 63.566406 75.933594 63.566406 78.117188 C 63.566406 80.304688 65.328125 82.070312 67.511719 82.070312 C 69.695312 82.070312 71.457031 80.304688 71.457031 78.117188 C 71.457031 75.933594 69.671875 74.167969 67.511719 74.167969 Z M 67.511719 74.167969 " fill-opacity="1" fill-rule="nonzero"/><path fill="#161523" d="M 67.511719 86.265625 C 65.328125 86.265625 63.566406 88.03125 63.566406 90.21875 C 63.566406 92.40625 65.328125 94.171875 67.511719 94.171875 C 69.695312 94.171875 71.457031 92.40625 71.457031 90.21875 C 71.457031 88.03125 69.671875 86.265625 67.511719 86.265625 Z M 67.511719 86.265625 " fill-opacity="1" fill-rule="nonzero"/><g clip-path="url(#id4)"><path fill="#9e95eb" d="M 87.695312 69.09375 L 103.082031 69.09375 C 103.34375 69.09375 103.5625 69.1875 103.746094 69.371094 C 103.929688 69.558594 104.023438 69.78125 104.023438 70.042969 L 104.023438 78.90625 C 104.023438 79.167969 103.929688 79.390625 103.746094 79.578125 C 103.5625 79.761719 103.34375 79.855469 103.082031 79.855469 L 87.695312 79.855469 C 87.4375 79.855469 87.214844 79.761719 87.03125 79.578125 C 86.847656 79.390625 86.753906 79.167969 86.753906 78.90625 L 86.753906 70.042969 C 86.753906 69.78125 86.847656 69.558594 87.03125 69.371094 C 87.214844 69.1875 87.4375 69.09375 87.695312 69.09375 Z M 87.695312 69.09375 " fill-opacity="1" fill-rule="nonzero"/></g><g clip-path="url(#id5)"><path fill="#ffffff" d="M 94.550781 66.441406 L 96.171875 66.441406 C 96.292969 66.441406 96.394531 66.484375 96.476562 66.566406 C 96.5625 66.652344 96.601562 66.753906 96.601562 66.875 L 96.601562 70.363281 C 96.601562 70.484375 96.5625 70.585938 96.476562 70.671875 C 96.394531 70.753906 96.292969 70.796875 96.171875 70.796875 L 94.550781 70.796875 C 94.429688 70.796875 94.328125 70.753906 94.246094 70.671875 C 94.160156 70.585938 94.121094 70.484375 94.121094 70.363281 L 94.121094 66.875 C 94.121094 66.753906 94.160156 66.652344 94.246094 66.566406 C 94.328125 66.484375 94.429688 66.441406 94.550781 66.441406 Z M 94.550781 66.441406 " fill-opacity="1" fill-rule="nonzero"/></g><path fill="#ffffff" d="M 90.257812 72.015625 L 100.660156 72.015625 C 100.871094 72.015625 101.074219 72.054688 101.265625 72.136719 C 101.460938 72.21875 101.632812 72.332031 101.78125 72.484375 C 101.929688 72.632812 102.042969 72.804688 102.125 73 C 102.203125 73.195312 102.246094 73.402344 102.246094 73.613281 L 102.246094 77.589844 C 102.246094 77.8125 102.167969 78.003906 102.007812 78.164062 C 101.851562 78.320312 101.664062 78.398438 101.441406 78.398438 L 88.984375 78.398438 C 88.761719 78.398438 88.574219 78.320312 88.414062 78.164062 C 88.257812 78.003906 88.179688 77.8125 88.179688 77.589844 L 88.179688 74.109375 C 88.179688 73.832031 88.234375 73.566406 88.339844 73.308594 C 88.445312 73.050781 88.59375 72.824219 88.789062 72.628906 C 88.984375 72.433594 89.210938 72.28125 89.464844 72.175781 C 89.71875 72.066406 89.984375 72.015625 90.257812 72.015625 Z M 90.257812 72.015625 " fill-opacity="1" fill-rule="nonzero"/><path fill="#ffffff" d="M 89.429688 72.214844 L 101.058594 72.214844 C 101.28125 72.214844 101.472656 72.292969 101.628906 72.453125 C 101.785156 72.609375 101.863281 72.800781 101.863281 73.023438 L 101.863281 76.886719 C 101.863281 77.113281 101.785156 77.300781 101.628906 77.460938 C 101.472656 77.621094 101.28125 77.699219 101.058594 77.699219 L 89.429688 77.699219 C 89.207031 77.699219 89.015625 77.621094 88.859375 77.460938 C 88.703125 77.300781 88.625 77.113281 88.625 76.886719 L 88.625 73.023438 C 88.625 72.800781 88.703125 72.609375 88.859375 72.453125 C 89.015625 72.292969 89.207031 72.214844 89.429688 72.214844 Z M 89.429688 72.214844 " fill-opacity="1" fill-rule="nonzero"/><g clip-path="url(#id6)"><path stroke-linecap="round" transform="matrix(0.275845, 0, 0, 0.27798, 85.459112, 63.494343)" fill="none" stroke-linejoin="round" d="M 40.507196 20.649082 L 63.887076 20.649082 C 64.835866 20.649082 65.628884 20.986337 66.294453 21.646793 C 66.974183 22.30725 67.299887 23.108229 67.299887 24.049731 L 67.299887 55.948382 C 67.299887 56.889884 66.974183 57.690864 66.308614 58.35132 C 65.628884 59.025829 64.835866 59.349032 63.887076 59.349032 L 8.106734 59.349032 C 7.172105 59.349032 6.364926 59.025829 5.699357 58.35132 C 5.033788 57.690864 4.693923 56.889884 4.693923 55.948382 L 4.693923 24.049731 C 4.693923 23.108229 5.033788 22.30725 5.699357 21.646793 C 6.364926 20.986337 7.172105 20.649082 8.106734 20.649082 L 31.401647 20.649082 " stroke="#000000" stroke-width="2" stroke-opacity="1" stroke-miterlimit="4"/></g><path stroke-linecap="round" transform="matrix(0.275845, 0, 0, 0.27798, 85.459112, 63.494343)" fill="none" stroke-linejoin="round" d="M 14.394236 31.370963 L 56.551656 31.370963 C 57.358836 31.370963 58.052727 31.652009 58.619168 32.228152 C 59.18561 32.790243 59.468831 33.478804 59.468831 34.279783 L 59.468831 48.177478 C 59.468831 48.992509 59.18561 49.667018 58.619168 50.243161 C 58.052727 50.819304 57.358836 51.10035 56.551656 51.10035 L 14.394236 51.10035 C 13.587057 51.10035 12.893166 50.819304 12.326724 50.243161 C 11.760282 49.667018 11.477062 48.992509 11.477062 48.177478 L 11.477062 34.279783 C 11.477062 33.478804 11.760282 32.790243 12.326724 32.228152 C 12.893166 31.652009 13.587057 31.370963 14.394236 31.370963 Z M 14.394236 31.370963 " stroke="#000000" stroke-width="2" stroke-opacity="1" stroke-miterlimit="4"/><path stroke-linecap="round" transform="matrix(0.275845, 0, 0, 0.27798, 85.459112, 63.494343)" fill="none" stroke-linejoin="round" d="M 52.402471 38.144157 L 48.394897 38.144157 L 48.394897 45.142187 L 52.402471 45.142187 " stroke="#000000" stroke-width="2" stroke-opacity="1" stroke-miterlimit="4"/><path stroke-linecap="round" transform="matrix(0.275845, 0, 0, 0.27798, 85.459112, 63.494343)" fill="none" stroke-linejoin="round" d="M 48.394897 41.643172 L 51.397037 41.643172 " stroke="#000000" stroke-width="2" stroke-opacity="1" stroke-miterlimit="4"/><path stroke-linecap="round" transform="matrix(0.275845, 0, 0, 0.27798, 85.459112, 63.494343)" fill="none" stroke-linejoin="round" d="M 34.389627 45.142187 L 31.401647 38.144157 L 28.399506 45.142187 " stroke="#000000" stroke-width="2" stroke-opacity="1" stroke-miterlimit="4"/><path stroke-linecap="round" transform="matrix(0.275845, 0, 0, 0.27798, 85.459112, 63.494343)" fill="none" stroke-linejoin="round" d="M 29.390779 43.469967 L 33.398354 43.469967 " stroke="#000000" stroke-width="2" stroke-opacity="1" stroke-miterlimit="4"/><path stroke-linecap="round" transform="matrix(0.275845, 0, 0, 0.27798, 85.459112, 63.494343)" fill="none" stroke-linejoin="round" d="M 19.393084 45.142187 L 19.393084 38.144157 L 24.391931 45.142187 L 24.391931 38.144157 " stroke="#000000" stroke-width="2" stroke-opacity="1" stroke-miterlimit="4"/><path stroke-linecap="round" transform="matrix(0.275845, 0, 0, 0.27798, 85.459112, 63.494343)" fill="none" stroke-linejoin="round" d="M 44.401483 45.142187 L 44.401483 38.144157 L 41.399342 44.144476 L 38.397201 38.144157 L 38.397201 45.142187 " stroke="#000000" stroke-width="2" stroke-opacity="1" stroke-miterlimit="4"/><g clip-path="url(#id7)"><path stroke-linecap="butt" transform="matrix(0.275845, 0, 0, 0.27798, 85.459112, 63.494343)" fill="none" stroke-linejoin="miter" d="M 33.058489 10.236351 L 38.949482 10.236351 C 39.374313 10.236351 39.7425 10.390925 40.039882 10.686023 C 40.351425 10.995173 40.507196 11.360532 40.507196 11.796152 L 40.507196 24.358881 C 40.507196 24.780449 40.351425 25.145808 40.039882 25.454958 C 39.7425 25.764108 39.374313 25.904631 38.949482 25.904631 L 33.058489 25.904631 C 32.619496 25.904631 32.26547 25.764108 31.953927 25.454958 C 31.656546 25.145808 31.500774 24.780449 31.500774 24.358881 L 31.500774 11.796152 C 31.500774 11.360532 31.656546 10.995173 31.953927 10.686023 C 32.26547 10.390925 32.619496 10.236351 33.058489 10.236351 Z M 33.058489 10.236351 " stroke="#000000" stroke-width="2" stroke-opacity="1" stroke-miterlimit="10"/></g><g clip-path="url(#id8)"><path fill="#ffffff" d="M 89.15625 73.140625 L 100.9375 73.140625 L 100.9375 76.625 L 89.15625 76.625 L 89.15625 73.140625 " fill-opacity="1" fill-rule="nonzero"/></g><g fill="#000000" fill-opacity="1"><g transform="translate(91.890594, 76.014542)"><g><path d="M 0.140625 -1.109375 C 0.140625 -1.328125 0.1875 -1.519531 0.28125 -1.6875 C 0.382812 -1.863281 0.519531 -2 0.6875 -2.09375 C 0.851562 -2.195312 1.039062 -2.25 1.25 -2.25 C 1.488281 -2.25 1.695312 -2.191406 1.875 -2.078125 C 2.0625 -1.960938 2.195312 -1.796875 2.28125 -1.578125 L 1.921875 -1.578125 C 1.867188 -1.710938 1.78125 -1.816406 1.65625 -1.890625 C 1.539062 -1.960938 1.40625 -2 1.25 -2 C 1.09375 -2 0.953125 -1.960938 0.828125 -1.890625 C 0.703125 -1.816406 0.601562 -1.710938 0.53125 -1.578125 C 0.46875 -1.441406 0.4375 -1.285156 0.4375 -1.109375 C 0.4375 -0.929688 0.46875 -0.773438 0.53125 -0.640625 C 0.601562 -0.515625 0.703125 -0.414062 0.828125 -0.34375 C 0.953125 -0.269531 1.09375 -0.234375 1.25 -0.234375 C 1.40625 -0.234375 1.539062 -0.269531 1.65625 -0.34375 C 1.78125 -0.414062 1.867188 -0.515625 1.921875 -0.640625 L 2.28125 -0.640625 C 2.195312 -0.429688 2.0625 -0.269531 1.875 -0.15625 C 1.695312 -0.0390625 1.488281 0.015625 1.25 0.015625 C 1.039062 0.015625 0.851562 -0.03125 0.6875 -0.125 C 0.519531 -0.21875 0.382812 -0.347656 0.28125 -0.515625 C 0.1875 -0.691406 0.140625 -0.890625 0.140625 -1.109375 Z M 0.140625 -1.109375 "/></g></g></g><g fill="#000000" fill-opacity="1"><g transform="translate(94.357257, 76.014542)"><g><path d="M 2.5 -2.203125 L 2.5 0 L 2.203125 0 L 2.203125 -1.640625 L 1.46875 0 L 1.265625 0 L 0.53125 -1.640625 L 0.53125 0 L 0.25 0 L 0.25 -2.203125 L 0.5625 -2.203125 L 1.375 -0.375 L 2.1875 -2.203125 Z M 2.5 -2.203125 "/></g></g></g><g fill="#000000" fill-opacity="1"><g transform="translate(97.10829, 76.014542)"><g><path d="M 0.953125 0.015625 C 0.804688 0.015625 0.671875 -0.0078125 0.546875 -0.0625 C 0.429688 -0.113281 0.34375 -0.179688 0.28125 -0.265625 C 0.21875 -0.359375 0.1875 -0.46875 0.1875 -0.59375 L 0.484375 -0.59375 C 0.492188 -0.488281 0.535156 -0.398438 0.609375 -0.328125 C 0.691406 -0.253906 0.804688 -0.21875 0.953125 -0.21875 C 1.085938 -0.21875 1.191406 -0.253906 1.265625 -0.328125 C 1.347656 -0.398438 1.390625 -0.488281 1.390625 -0.59375 C 1.390625 -0.675781 1.363281 -0.742188 1.3125 -0.796875 C 1.269531 -0.847656 1.210938 -0.890625 1.140625 -0.921875 C 1.078125 -0.953125 0.984375 -0.984375 0.859375 -1.015625 C 0.710938 -1.046875 0.59375 -1.082031 0.5 -1.125 C 0.414062 -1.164062 0.34375 -1.222656 0.28125 -1.296875 C 0.21875 -1.378906 0.1875 -1.492188 0.1875 -1.640625 C 0.1875 -1.753906 0.21875 -1.859375 0.28125 -1.953125 C 0.34375 -2.046875 0.429688 -2.117188 0.546875 -2.171875 C 0.660156 -2.222656 0.789062 -2.25 0.9375 -2.25 C 1.144531 -2.25 1.3125 -2.195312 1.4375 -2.09375 C 1.570312 -1.988281 1.648438 -1.851562 1.671875 -1.6875 L 1.34375 -1.6875 C 1.332031 -1.769531 1.285156 -1.84375 1.203125 -1.90625 C 1.128906 -1.96875 1.03125 -2 0.90625 -2 C 0.78125 -2 0.675781 -1.96875 0.59375 -1.90625 C 0.519531 -1.84375 0.484375 -1.753906 0.484375 -1.640625 C 0.484375 -1.566406 0.503906 -1.503906 0.546875 -1.453125 C 0.597656 -1.398438 0.65625 -1.359375 0.71875 -1.328125 C 0.789062 -1.304688 0.890625 -1.273438 1.015625 -1.234375 C 1.160156 -1.191406 1.273438 -1.148438 1.359375 -1.109375 C 1.453125 -1.078125 1.53125 -1.019531 1.59375 -0.9375 C 1.65625 -0.851562 1.6875 -0.742188 1.6875 -0.609375 C 1.6875 -0.492188 1.65625 -0.390625 1.59375 -0.296875 C 1.539062 -0.203125 1.457031 -0.125 1.34375 -0.0625 C 1.226562 -0.0078125 1.097656 0.015625 0.953125 0.015625 Z M 0.953125 0.015625 "/></g></g></g></svg>