<svg version="1.2" xmlns="http://www.w3.org/2000/svg" viewBox="0 0 60 36" width="60" height="36"><defs><clipPath clipPathUnits="userSpaceOnUse" id="cp1"><path d="m19.41 3.46h22.27v32.84h-22.27z"/></clipPath><clipPath clipPathUnits="userSpaceOnUse" id="cp2"><path d="m0-0.31h60v36.63h-60z"/></clipPath><clipPath clipPathUnits="userSpaceOnUse" id="cp3"><path d="m41.14 19h10.58v6.81h-10.58z"/></clipPath><clipPath clipPathUnits="userSpaceOnUse" id="cp4"><path d="m45 17.44h3v3.56h-3z"/></clipPath><clipPath clipPathUnits="userSpaceOnUse" id="cp5"><path d="m41.14 19h10.58v6.81h-10.58z"/></clipPath><clipPath clipPathUnits="userSpaceOnUse" id="cp6"><path d="m41.14 17.44h10.58v7.56h-10.58z"/></clipPath><clipPath clipPathUnits="userSpaceOnUse" id="cp7"><path d="m42.75 21.61h6.95v2.06h-6.95z"/></clipPath></defs><style>.a{fill:#161523}.b{fill:#fff}.c{fill:#9e95eb}.d{fill:none;stroke:#000;stroke-linecap:round;stroke-linejoin:round;stroke-width:.3}.e{fill:none;stroke:#000;stroke-width:.3}</style><g clip-path="url(#cp1)"><path class="a" d="m19.4 3.5h22.3v32.8h-22.3z"/></g><g clip-path="url(#cp2)"><path fill-rule="evenodd" class="b" d="m59.7 35.9c-0.2 0.3-0.5 0.5-0.9 0.5h-57.6c-0.4 0-0.7-0.2-0.9-0.5-0.2-0.3-0.3-0.6-0.2-1l5.8-17.4c1.4-4.1 5.1-6.9 9.3-7.1v-8.8c0-1 0.9-1.9 2-1.9h1.6v-0.3c0-1.8 1.4-3.3 3.2-3.3h5.3c0.1-0.7 0.2-1.5 0.2-2.2-0.1-0.3-0.1-0.8-0.3-1-0.2-0.3-0.6-0.2-1-0.2-1.8 0.2-3.8-0.8-4.6-2.5-0.9-1.7-0.2-3.9 1.5-4.8 2.5-1.4 5.6-0.1 7 2.2 1-1.3 2.2-2.6 3.8-2.9 3.2-0.7 5.7 2.8 4.4 5.6-0.8 1.5-2.2 1.8-3.7 1.9-1 0-1.7 0.5-1.8 1.6-0.1 0.8 0.1 1.5 0.2 2.3h4.9c1.8 0 3.3 1.5 3.3 3.3v0.3h1.6c1.1 0 2 0.9 2 1.9v8.8c4.2 0.2 7.9 3 9.3 7.1l5.8 17.4c0.1 0.4 0 0.7-0.2 1zm-31.1-29.3q-0.1 0-0.2 0.1c-0.4 0.1-0.6 0.4-0.6 0.8v2.8q0 0.2 0.1 0.4c0.1 0.2 0.2 0.3 0.5 0.4q0.1 0.1 0.2 0.1h2.8q0.1 0 0.2-0.1 0.4-0.1 0.6-0.4 0.1-0.2 0.1-0.4v-2.8c0-0.4-0.3-0.7-0.7-0.8q-0.1-0.1-0.2-0.1zm-2 3.7v-2.8c0-0.6 0.2-1.1 0.6-1.4l-3.8-1.6c-0.9-0.4-1.9-0.3-2.8 0.2-0.8 0.6-1.3 1.5-1.3 2.5 0 0 0 3.5 0 3.7 0.1 1.3 1.2 2.4 2.5 2.6q0.8 0.1 1.6-0.2l3.8-1.6q-0.3-0.2-0.4-0.5-0.2-0.4-0.2-0.9zm-4.4 25h15.5v-20.7q0 0 0 0-0.9 0-1.6-0.3l-3.9-1.7q-0.3-0.1-0.6-0.4-0.1 0-0.2 0h-2.8q-0.1 0-0.2 0-0.3 0.3-0.7 0.4l-3.8 1.7q-0.8 0.3-1.6 0.3-0.1 0-0.1 0zm17.1-22.2c0.8-0.6 1.3-1.5 1.3-2.5v-3.3c0-1-0.5-2-1.3-2.5-0.8-0.6-1.9-0.7-2.8-0.3l-3.8 1.6c0.4 0.4 0.6 0.9 0.6 1.5v2.7q0 0.5-0.2 0.9-0.2 0.3-0.4 0.5l3.8 1.7c0.9 0.4 1.9 0.3 2.8-0.3zm-19.5-13.6v0.3h6.1c1.8 0 3.3 0.9 4 2.3 0.8-1.4 2.3-2.3 4-2.3h6.2v-0.3c0-1.2-1-2.2-2.2-2.2h-15.9c-1.2 0-2.1 1-2.1 2.2z"/></g><path class="b" d="m32.3 17.4c0 1.3-1 2.4-2.3 2.4-1.3 0-2.3-1.1-2.3-2.4 0-1.3 1-2.3 2.3-2.3 1.3 0 2.3 1 2.3 2.3z"/><path class="b" d="m32.3 24.5c0 1.3-1 2.4-2.3 2.4-1.3 0-2.3-1.1-2.3-2.4 0-1.2 1-2.3 2.3-2.3 1.3 0 2.3 1.1 2.3 2.3z"/><path class="b" d="m32.3 31.7c0 1.3-1 2.3-2.3 2.3-1.3 0-2.3-1-2.3-2.3 0-1.3 1-2.4 2.3-2.4 1.3 0 2.3 1.1 2.3 2.4z"/><g clip-path="url(#cp3)"><path class="c" d="m41.9 19.2h9.1q0.2 0 0.4 0.2 0.1 0.2 0.1 0.4v5.2q0 0.2-0.1 0.4-0.2 0.2-0.4 0.2h-9.1q-0.2 0-0.4-0.2-0.2-0.2-0.2-0.4v-5.2q0-0.2 0.2-0.4 0.2-0.2 0.4-0.2z"/></g><g clip-path="url(#cp4)"><path class="b" d="m45.9 17.7h1q0.1 0 0.2 0 0 0.1 0 0.2v2.1q0 0.1 0 0.2-0.1 0-0.2 0h-1q-0.1 0-0.1 0-0.1-0.1-0.1-0.2v-2.1q0-0.1 0.1-0.2 0 0 0.1 0z"/></g><path class="b" d="m43.4 21h6.1q0.4 0 0.7 0.2 0.3 0.3 0.3 0.7v2.3q0 0.2-0.2 0.4-0.1 0.1-0.3 0.1h-7.3q-0.2 0-0.4-0.1-0.1-0.2-0.1-0.4v-2q0-0.3 0.1-0.5 0.1-0.2 0.2-0.4 0.2-0.2 0.4-0.3 0.3 0 0.5 0z"/><path class="b" d="m42.9 21.1h6.9q0.2 0 0.3 0.1 0.1 0.1 0.1 0.3v2.3q0 0.2-0.1 0.4-0.1 0.1-0.3 0.1h-6.9q-0.2 0-0.3-0.1-0.2-0.2-0.2-0.4v-2.3q0-0.2 0.2-0.3 0.1-0.1 0.3-0.1z"/><g clip-path="url(#cp5)"><path class="d" d="m47.2 19.3h3.8q0.2 0 0.4 0.2 0.1 0.1 0.1 0.4v5.2q0 0.2-0.1 0.4-0.2 0.2-0.4 0.2h-9.1q-0.2 0-0.4-0.2-0.2-0.2-0.2-0.4v-5.2q0-0.3 0.2-0.4 0.2-0.2 0.4-0.2h3.8"/></g><path class="d" d="m42.9 21.1h6.9q0.2 0 0.3 0.1 0.1 0.1 0.1 0.3v2.3q0 0.2-0.1 0.4-0.1 0.1-0.3 0.1h-6.9q-0.2 0-0.3-0.1-0.2-0.2-0.2-0.4v-2.3q0-0.2 0.2-0.3 0.1-0.1 0.3-0.1z"/><path class="d" d="m49.1 23.3h-0.7v-1.1h0.7"/><path class="d" d="m48.4 22.8h0.5"/><path class="d" d="m45.2 23.3l0.5-1.1 0.5 1.1"/><path class="d" d="m45.4 23.1h0.6"/><path class="d" d="m43.7 23.3v-1.1l0.8 1.1v-1.1"/><path class="d" d="m46.8 23.3v-1.1l0.5 1 0.5-1v1.1"/><g clip-path="url(#cp6)"><path class="e" d="m46 17.6h0.9q0.1 0 0.2 0.1 0.1 0.1 0.1 0.2v2q0 0.1-0.1 0.2-0.1 0.1-0.2 0.1h-0.9q-0.2 0-0.2-0.1-0.1-0.1-0.1-0.2v-2q0-0.1 0.1-0.2 0-0.1 0.2-0.1z"/></g><g clip-path="url(#cp7)"><path class="b" d="m42.8 21.6h6.9v2.1h-6.9z"/></g><path  d="m44.4 22.7q0-0.2 0.1-0.4 0.1-0.1 0.3-0.2 0.1-0.1 0.3-0.1 0.2 0 0.4 0.1 0.1 0.1 0.2 0.3h-0.2q-0.1-0.1-0.2-0.2-0.1-0.1-0.2-0.1-0.1 0-0.2 0.1-0.2 0.1-0.2 0.2-0.1 0.1-0.1 0.3 0 0.1 0.1 0.2 0 0.1 0.2 0.2 0.1 0.1 0.2 0.1 0.1 0 0.2-0.1 0.1-0.1 0.2-0.2h0.2q-0.1 0.2-0.2 0.3-0.2 0.1-0.4 0.1-0.2 0-0.3-0.1-0.2 0-0.3-0.2-0.1-0.2-0.1-0.3z"/><path  d="m47.3 22v1.3h-0.2v-1l-0.4 1h-0.1l-0.5-1v1h-0.1v-1.3h0.2l0.4 1.1 0.5-1.1z"/><path  d="m48 23.3q-0.1 0-0.2 0-0.1-0.1-0.2-0.1 0-0.1 0-0.2h0.1q0 0.1 0.1 0.1 0.1 0.1 0.2 0.1 0.1 0 0.2-0.1 0.1 0 0.1-0.1 0-0.1-0.1-0.2 0 0-0.1 0 0-0.1-0.1-0.1-0.2 0-0.3 0 0-0.1-0.1-0.2 0 0 0-0.2 0-0.1 0-0.1 0.1-0.1 0.2-0.2 0.1 0 0.2 0 0.2 0 0.3 0.1 0.1 0.1 0.1 0.2h-0.2q0-0.1-0.1-0.1 0-0.1-0.1-0.1-0.1 0-0.2 0.1-0.1 0-0.1 0.1 0 0.1 0.1 0.2 0 0 0.1 0 0 0 0.1 0.1 0.2 0 0.2 0.1 0.1 0 0.2 0.1 0 0 0 0.1 0 0.1 0 0.2-0.1 0.1-0.2 0.2-0.1 0-0.2 0z"/></svg>